<svg width="149" height="136" viewBox="0 0 149 136" fill="none" xmlns="http://www.w3.org/2000/svg">
<path d="M140.164 7.59525H40.1704C36.4422 7.59525 33.4199 10.6175 33.4199 14.3457V126.176C33.4199 129.904 36.4422 132.927 40.1704 132.927H140.164C143.892 132.927 146.914 129.904 146.914 126.176V14.3457C146.914 10.6175 143.892 7.59525 140.164 7.59525Z" fill="white"/>
<path d="M146.912 21.1728V119.349C146.912 126.848 141.408 132.927 134.619 132.927H45.7175C39.2246 132.927 33.905 127.356 33.4629 120.324H119.409C126.201 120.324 131.702 114.245 131.702 106.746V8.57004C131.702 8.23931 131.702 7.91902 131.663 7.59525H134.623C141.411 7.59525 146.912 13.6738 146.912 21.1728Z" fill="#E7E7E7"/>
<path d="M140.164 135.015H40.1744C37.8297 135.015 35.5812 134.083 33.9226 132.426C32.264 130.769 31.3309 128.521 31.3281 126.176V14.3458C31.3309 12.0023 32.2631 9.75557 33.9202 8.09847C35.5773 6.44138 37.824 5.5092 40.1675 5.50644H140.164C142.507 5.51012 144.753 6.4427 146.409 8.0997C148.066 9.7567 148.998 12.0029 149 14.3458V126.176C148.998 128.519 148.066 130.765 146.409 132.422C144.753 134.079 142.507 135.012 140.164 135.015ZM40.1744 9.68415C38.9374 9.68415 37.751 10.1751 36.8757 11.0491C36.0004 11.9231 35.5077 13.1088 35.5058 14.3458V126.176C35.5077 127.412 35.9994 128.597 36.8732 129.47C37.7471 130.344 38.9317 130.836 40.1675 130.838H140.164C141.4 130.835 142.583 130.343 143.456 129.469C144.329 128.595 144.821 127.411 144.823 126.176V14.3458C144.821 13.11 144.329 11.9254 143.455 11.0515C142.581 10.1777 141.397 9.68599 140.161 9.68415H40.1744Z" fill="#003D75"/>
<path d="M5.83353 3.12826C7.74953 1.8202 10.1066 1.3267 12.3864 1.75629C14.6663 2.18587 16.6821 3.50337 17.9907 5.41903L68.6175 79.542C74.465 88.1049 78.9861 97.5016 82.028 107.414L82.6233 109.357C82.8377 110.094 82.8128 110.879 82.5522 111.601C82.2916 112.322 81.8088 112.943 81.1732 113.372C80.5377 113.802 79.7821 114.019 79.0154 113.992C78.2488 113.965 77.5104 113.695 76.9068 113.221L75.556 112.177C67.228 105.658 59.9536 97.8948 53.9886 89.1612L3.54623 15.2819C2.23894 13.3666 1.74552 11.0106 2.17441 8.73168C2.6033 6.45275 3.91941 4.43731 5.83353 3.12826Z" fill="#037B31"/>
<path d="M82.4107 110.499C82.4332 111.188 82.2585 111.87 81.9071 112.464C81.5557 113.057 81.0422 113.538 80.4269 113.85C79.8116 114.162 79.1201 114.292 78.4336 114.224C77.7471 114.156 77.0942 113.894 76.5514 113.469L75.2007 112.424C66.8661 105.907 59.5858 98.1436 53.6158 89.4085L3.18392 15.5292C2.38817 14.3626 1.88654 13.0207 1.72184 11.6182C1.55714 10.2156 1.73426 8.79408 2.23808 7.47483C2.74191 6.15559 3.55747 4.97785 4.61515 4.04215C5.67283 3.10644 6.94123 2.44056 8.31205 2.10135C7.2847 3.55827 6.72714 5.29437 6.71408 7.07704C6.70101 8.85971 7.23306 10.6038 8.23894 12.0756L58.6848 85.9375C64.6547 94.6727 71.9351 102.436 80.2696 108.953L81.6204 109.998C81.8622 110.197 82.1276 110.365 82.4107 110.499Z" fill="#153314"/>
<path d="M33.0695 40.4584C33.6738 40.0375 31.5746 35.9795 28.381 31.3947C25.1873 26.8099 22.1085 23.4344 21.5043 23.8553C20.9 24.2762 22.9991 28.3342 26.1928 32.919C29.3864 37.5038 32.4652 40.8793 33.0695 40.4584Z" fill="white"/>
<path d="M18.9197 20.0118C19.524 19.5909 18.7193 17.3914 17.1225 15.099C15.5257 12.8065 13.7413 11.2894 13.1371 11.7103C12.5328 12.1312 13.3375 14.3308 14.9343 16.6232C16.5311 18.9156 18.3154 20.4328 18.9197 20.0118Z" fill="white"/>
<path d="M79.2047 116.585C77.927 116.58 76.6882 116.145 75.6884 115.349L74.3376 114.305C65.8402 107.654 58.4188 99.734 52.335 90.8223L1.88571 16.9465C0.677813 15.1764 0.0217805 13.088 0.00053296 10.9451C-0.0207146 8.8023 0.593777 6.70126 1.76634 4.90758C2.9389 3.1139 4.6169 1.7081 6.58824 0.867851C8.55958 0.0276075 10.7358 -0.209356 12.8418 0.186913C14.2404 0.445424 15.574 0.978479 16.7655 1.75529C17.9571 2.5321 18.9829 3.53728 19.7837 4.71276L70.4071 78.8462C76.3755 87.5814 80.9894 97.1684 84.0926 107.282L84.6879 109.229C85.044 110.391 85.0147 111.637 84.6044 112.782C84.194 113.926 83.4247 114.907 82.4111 115.579C81.4673 116.228 80.3502 116.579 79.2047 116.585ZM10.819 4.17314C9.60861 4.17609 8.42186 4.50887 7.38636 5.1357C6.35087 5.76253 5.50578 6.65972 4.94195 7.73083C4.37812 8.80193 4.11685 10.0064 4.18625 11.2149C4.25564 12.4234 4.65307 13.59 5.3358 14.5896L55.7851 88.4549C61.6272 97.0126 68.7539 104.618 76.9139 111.004L78.2647 112.049C78.5198 112.256 78.8345 112.375 79.1627 112.39C79.4908 112.405 79.8151 112.314 80.0878 112.131C80.3605 111.948 80.5673 111.682 80.6778 111.373C80.7883 111.063 80.7967 110.727 80.7017 110.412L80.1133 108.498C77.1344 98.7859 72.7047 89.5804 66.9744 81.1927L16.3336 7.08013C15.8421 6.35709 15.2121 5.73865 14.4801 5.2606C13.7481 4.78254 12.9285 4.45435 12.0689 4.29499C11.657 4.21557 11.2385 4.17478 10.819 4.17314Z" fill="#003D75"/>
<path d="M89.9941 111.863H122.72V116.041H89.9941V111.863Z" fill="#003D75"/>
<path d="M75.7188 71.483H122.718V75.6607H75.7188V71.483Z" fill="#003D75"/>
<path d="M75.7188 60.4296H122.718V64.6073H75.7188V60.4296Z" fill="#003D75"/>
<path d="M75.7188 49.3763H122.718V53.554H75.7188V49.3763Z" fill="#003D75"/>
<path d="M75.7188 38.3229H122.718V42.5006H75.7188V38.3229Z" fill="#003D75"/>
<path d="M75.7188 27.2688H122.718V31.4465H75.7188V27.2688Z" fill="#003D75"/>
<path d="M125.979 19.8468L131.121 14.7055C132.83 13.0038 135.586 13.0038 137.295 14.7055C138.996 16.4071 138.996 19.1705 137.295 20.8794L132.153 26.0207C130.444 27.7223 127.681 27.7223 125.979 26.0207C124.278 24.3118 124.278 21.5557 125.979 19.8468ZM127.012 20.8794C126.248 21.6357 125.994 22.7192 126.256 23.6864L130.612 19.3377L133.695 22.4211L136.262 19.8468C137.404 18.7124 137.404 16.8725 136.262 15.7381C135.128 14.5964 133.288 14.5964 132.153 15.7381L127.012 20.8794Z" fill="#153314"/>
</svg>
