<svg width="54" height="54" viewBox="0 0 54 54" fill="none" xmlns="http://www.w3.org/2000/svg">
<ellipse cx="27.5147" cy="27.2469" rx="17.0362" ry="16.9041" fill="#47AD44"/>
<path d="M26.0888 32.8817L31.7676 27.247L26.0888 21.6123" stroke="#E3E3E3" stroke-width="1.41968" stroke-linecap="round" stroke-linejoin="round"/>
<path d="M36.3058 9.50894C33.5775 8.00837 30.5328 7.18057 27.4206 7.09323C24.3084 7.00589 21.2171 7.66148 18.3994 9.0064C15.5818 10.3513 13.1178 12.3474 11.2089 14.8314C9.30001 17.3154 8.00044 20.2169 7.41643 23.2985C6.83242 26.3801 6.98056 29.5544 7.84873 32.5619C8.7169 35.5694 10.2805 38.3246 12.4116 40.6024C14.5427 42.8801 17.1808 44.6157 20.1103 45.6672C23.0398 46.7187 26.1774 47.0562 29.2667 46.6522L29.1079 45.3857C26.2173 45.7637 23.2813 45.4478 20.5402 44.4639C17.7991 43.48 15.3305 41.8561 13.3364 39.7248C11.3424 37.5935 9.87932 35.0153 9.06697 32.2012C8.25461 29.3871 8.116 26.4169 8.66246 23.5334C9.20892 20.6499 10.4249 17.935 12.2111 15.6106C13.9973 13.2863 16.3028 11.4186 18.9393 10.1601C21.5758 8.90168 24.4684 8.28824 27.3805 8.36996C30.2926 8.45169 33.1416 9.22627 35.6945 10.6304L36.3058 9.50894Z" fill="#47AD44"/>
</svg>
