<svg width="16" height="16" viewBox="0 0 16 16" fill="none" xmlns="http://www.w3.org/2000/svg">
<path d="M1.51621 7.40873L7.40788 1.51707C9.36621 -0.432935 12.5245 -0.432935 14.4829 1.51707C16.4329 3.46706 16.4329 6.63373 14.4829 8.59206L8.59121 14.4837C6.63288 16.4337 3.46621 16.4337 1.51621 14.4837C-0.433789 12.5254 -0.433789 9.36706 1.51621 7.40873ZM2.69954 8.59206C1.82454 9.45873 1.53288 10.7004 1.83288 11.8087L6.82454 6.8254L10.3579 10.3587L13.2995 7.40873C14.6079 6.10873 14.6079 4.0004 13.2995 2.7004C11.9995 1.39207 9.89121 1.39207 8.59121 2.7004L2.69954 8.59206Z" fill="#060606"/>
</svg>
