<svg width="8" height="16" viewBox="0 0 8 16" fill="none" xmlns="http://www.w3.org/2000/svg">
<path d="M7.83477 0.833008C7.83477 0.67832 7.7082 0.551758 7.55352 0.551758H0.447266C0.292578 0.551758 0.166016 0.67832 0.166016 0.833008V1.89238V1.89707C0.166016 1.90176 0.166016 1.90645 0.166016 1.91113C0.166016 1.91582 0.166016 1.92051 0.166016 1.9252V1.92988L1.72227 12.4346V15.158C1.72227 15.3127 1.84883 15.4393 2.00352 15.4393H5.99258C6.14727 15.4393 6.27383 15.3127 6.27383 15.158V12.4346L7.83008 1.92988V1.9252C7.83008 1.92051 7.83008 1.91582 7.83008 1.91113C7.83008 1.90645 7.83008 1.90176 7.83008 1.89707V1.89238V0.833008H7.83477ZM0.728516 1.11426H7.27695V1.61113H0.728516V1.11426ZM5.71133 13.7096H2.28477V12.7018H5.71133V13.7096ZM2.28945 14.8861V14.2721H5.71602V14.8861H2.28945ZM5.75352 12.1393H2.25195L0.775391 2.17363H7.23477L5.75352 12.1393Z" fill="#060606"/>
<path d="M5.86055 6.1582H2.13867C1.98398 6.1582 1.85742 6.28477 1.85742 6.43945C1.85742 6.59414 1.98398 6.7207 2.13867 6.7207H5.86055C6.01523 6.7207 6.1418 6.59414 6.1418 6.43945C6.1418 6.28477 6.01523 6.1582 5.86055 6.1582Z" fill="#060606"/>
<path d="M2.13867 5.84434H5.86055C6.01523 5.84434 6.1418 5.71777 6.1418 5.56309C6.1418 4.38184 5.18086 3.4209 3.99961 3.4209C2.81836 3.4209 1.85742 4.38184 1.85742 5.56309C1.85742 5.71777 1.98398 5.84434 2.13867 5.84434ZM3.99961 3.9834C4.77305 3.9834 5.41992 4.5459 5.55117 5.28184H2.44336C2.5793 4.5459 3.22617 3.9834 3.99961 3.9834Z" fill="#060606"/>
</svg>
