<svg width="20" height="20" viewBox="0 0 20 20" fill="none" xmlns="http://www.w3.org/2000/svg">
<g clip-path="url(#clip0_1859_15685)">
<path d="M18.2442 13.7456H13.0683L8.57556 2.89854C8.49705 2.70891 8.34632 2.55828 8.15669 2.47966C7.96706 2.40115 7.7539 2.40115 7.56437 2.47977L6.75231 2.81631L5.78373 0.477712C5.70522 0.288082 5.55448 0.137451 5.36485 0.0588339C5.17522 -0.0195769 4.96217 -0.0196801 4.77254 0.058937L1.71968 1.32393C1.53005 1.40255 1.37942 1.55318 1.30091 1.74281C1.22239 1.93244 1.22249 2.14538 1.30111 2.33502L2.27041 4.6732L1.45824 5.00975C1.06351 5.17328 0.876043 5.62589 1.03957 6.02073L6.6316 19.5223C6.75138 19.8115 7.03356 20 7.34648 20H18.2442C18.6716 20 19.018 19.6537 19.018 19.2262V14.5194C19.018 14.0921 18.6716 13.7456 18.2442 13.7456ZM4.65007 1.7849L5.32245 3.40811L3.69996 4.08027L3.02718 2.45738L4.65007 1.7849ZM2.76554 6.1434L7.44191 4.20573L11.8363 14.8155C11.9561 15.1047 12.2383 15.2932 12.5512 15.2932H13.692V18.4524H7.86378L2.76554 6.1434ZM17.4704 18.4524H15.2395V15.2932H17.4704V18.4524Z" fill="#060606"/>
</g>
<defs>
<clipPath id="clip0_1859_15685">
<rect width="20" height="20" fill="white"/>
</clipPath>
</defs>
</svg>
