<svg width="24" height="24" viewBox="0 0 24 24" fill="none" xmlns="http://www.w3.org/2000/svg">
<path d="M12.0001 22C9.81378 21.9988 7.68817 21.2808 5.94899 19.956C4.20981 18.6312 2.953 16.7726 2.37117 14.6652C1.78934 12.5577 1.91458 10.3176 2.7277 8.28812C3.54082 6.25865 4.99696 4.55178 6.87298 3.42908C8.749 2.30638 10.9414 1.82978 13.1142 2.07233C15.287 2.31487 17.3203 3.26317 18.9026 4.77191C20.4849 6.28066 21.5288 8.2666 21.8744 10.4254C22.22 12.5842 21.8482 14.7968 20.816 16.7241C20.7539 16.8398 20.6696 16.9421 20.5679 17.0252C20.4662 17.1083 20.3492 17.1705 20.2234 17.2084C20.0977 17.2462 19.9658 17.259 19.8351 17.2458C19.7045 17.2327 19.5777 17.1939 19.462 17.1318C19.3463 17.0697 19.244 16.9854 19.1609 16.8837C19.0778 16.782 19.0156 16.665 18.9777 16.5392C18.9399 16.4135 18.9271 16.2816 18.9403 16.1509C18.9534 16.0203 18.9921 15.8935 19.0543 15.7778C19.9845 14.0425 20.2423 12.0251 19.7785 10.1116C19.3147 8.1981 18.1619 6.5227 16.5404 5.40582C14.9189 4.28895 12.9426 3.80899 10.9894 4.05775C9.03628 4.3065 7.24337 5.26649 5.95359 6.75414C4.6638 8.24179 3.96766 10.1527 3.9983 12.1214C4.02895 14.09 4.78422 15.9784 6.11968 17.4251C7.45513 18.8719 9.27705 19.7757 11.237 19.9635C13.1969 20.1514 15.1573 19.6101 16.7433 18.4433C16.9567 18.286 17.2239 18.2199 17.486 18.2595C17.7482 18.2992 17.9839 18.4413 18.1412 18.6548C18.2986 18.8682 18.3647 19.1354 18.325 19.3975C18.2854 19.6597 18.1432 19.8954 17.9298 20.0527C16.2142 21.3228 14.1347 22.0057 12.0001 22Z" fill="#060606"/>
<path d="M21 13H7C6.73478 13 6.48043 12.8946 6.29289 12.7071C6.10536 12.5196 6 12.2652 6 12C6 11.7348 6.10536 11.4804 6.29289 11.2929C6.48043 11.1054 6.73478 11 7 11H21C21.2652 11 21.5196 11.1054 21.7071 11.2929C21.8946 11.4804 22 11.7348 22 12C22 12.2652 21.8946 12.5196 21.7071 12.7071C21.5196 12.8946 21.2652 13 21 13Z" fill="#060606"/>
</svg>
